<svg width="12" height="12" viewBox="0 0 12 12" fill="none" xmlns="http://www.w3.org/2000/svg">
<path fill-rule="evenodd" clip-rule="evenodd" d="M5.83337 11.25C8.73284 11.25 11.0834 8.89947 11.0834 6C11.0834 3.1005 8.73284 0.75 5.83337 0.75C2.93388 0.75 0.583374 3.1005 0.583374 6C0.583374 8.89947 2.93388 11.25 5.83337 11.25ZM6.35837 3.375C6.35837 3.08505 6.12333 2.85 5.83337 2.85C5.54342 2.85 5.30837 3.08505 5.30837 3.375V5.78255C5.30837 6.061 5.41899 6.32807 5.61592 6.525L7.03715 7.94623C7.24216 8.15124 7.57459 8.15124 7.7796 7.94623C7.98461 7.74121 7.98461 7.40878 7.7796 7.20377L6.35837 5.78255V3.375Z" fill="#7C7C7C"/>
</svg>
