<svg width="10" height="12" viewBox="0 0 10 12" fill="none" xmlns="http://www.w3.org/2000/svg">
<path d="M6.85661 9.71065C5.42243 9.71065 4.18253 8.8363 3.56544 7.55556H6.28522C6.59949 7.55556 6.85661 7.27847 6.85661 6.93982C6.85661 6.60116 6.59949 6.32408 6.28522 6.32408H3.18832C3.15975 6.12088 3.14261 5.91769 3.14261 5.70833C3.14261 5.49898 3.15975 5.29579 3.18832 5.09259H6.28522C6.59949 5.09259 6.85661 4.81551 6.85661 4.47685C6.85661 4.1382 6.59949 3.86111 6.28522 3.86111H3.56544C4.18253 2.58037 5.42815 1.70602 6.85661 1.70602C7.57084 1.70602 8.23936 1.92769 8.81074 2.30329C9.09643 2.49417 9.46783 2.46338 9.70781 2.20477C10.0392 1.84764 9.96494 1.26269 9.56497 0.997918C8.77646 0.474538 7.8451 0.166668 6.85661 0.166668C4.61678 0.166668 2.71979 1.71218 2.01127 3.86111H0.571384C0.257123 3.86111 0 4.1382 0 4.47685C0 4.81551 0.257123 5.09259 0.571384 5.09259H1.74844C1.72558 5.29579 1.71415 5.49898 1.71415 5.70833C1.71415 5.91769 1.72558 6.12088 1.74844 6.32408H0.571384C0.257123 6.32408 0 6.60116 0 6.93982C0 7.27847 0.257123 7.55556 0.571384 7.55556H2.01127C2.71979 9.70449 4.61678 11.25 6.85661 11.25C7.85082 11.25 8.77646 10.9483 9.56497 10.4188C9.95922 10.154 10.0335 9.56287 9.7021 9.20574C9.46212 8.94713 9.09072 8.91634 8.80503 9.11338C8.23936 9.49514 7.57655 9.71065 6.85661 9.71065Z" fill="#7C7C7C"/>
</svg>
