<?xml version="1.0" encoding="UTF-8"?>
<svg id="uuid-aa48edd1-8ae6-4509-ae0d-0f0adab3b53f" data-name="Layer 2" xmlns="http://www.w3.org/2000/svg" width="497.55" height="497.55" viewBox="0 0 497.55 497.55">
  <path d="M248.77,0c-24.41,0-48.02,3.54-70.34,10.13-17.35,5.11-33.91,12.09-49.48,20.68-12.66,6.98-24.65,15.04-35.86,24.06-14.51,11.66-27.69,24.93-39.27,39.52,5.07,10.19,8.59,20.35,12.29,31.11,3.31,9.52,6.73,19.44,11.34,29.78,9.89,22.25,25.16,46.46,56.01,72.8,45.19,38.58,80.62,44.87,111.89,50.43,28.08,4.99,52.36,9.3,86.47,38.43,32.12,27.42,41.15,49.68,49.88,74.68-12.23,11.4-25.94,21.24-40.79,29.22-9.2-13.12-21.4-26.84-38.21-41.21-45.19-38.57-80.62-44.87-111.89-50.43-28.1-4.99-52.36-9.29-86.47-38.43-30.58-26.08-40.22-47.5-48.62-71.07v-.02c-.96-2.72-1.93-5.48-2.89-8.28-6.8-19.62-14.19-40.97-31.14-64.19C10.76,171.54,3.64,197.91,1.07,225.61v.02c-.7,7.62-1.07,15.35-1.07,23.16,0,137.17,111.6,248.77,248.77,248.77,23.09,0,45.45-3.17,66.68-9.09,17.43-4.84,34.08-11.54,49.75-19.88,13.54-7.19,26.34-15.61,38.24-25.08,14.75-11.74,28.13-25.11,39.88-39.84-3.58-8.11-6.41-16.31-9.38-24.87-3.93-11.39-8.08-23.35-14.17-35.92-9.96-20.55-25.13-42.74-53.18-66.68-45.18-38.58-80.62-44.87-111.87-50.43-28.1-4.99-52.36-9.3-86.48-38.43-34.11-29.12-42.16-52.4-51.5-79.37-.24-.72-.49-1.44-.75-2.16,11.11-10.33,23.42-19.39,36.7-26.94,9.37,13.74,21.95,28.14,39.64,43.25,45.19,38.58,80.62,44.87,111.89,50.43,28.08,4.99,52.36,9.3,86.47,38.43,32.05,27.36,41.11,49.59,49.83,74.53,.57,1.61,1.12,3.23,1.68,4.85,6.84,19.76,14.29,41.26,31.5,64.68,10.96-23.09,18.46-48.12,21.82-74.42,1.35-10.42,2.04-21.06,2.04-31.83C497.55,111.6,385.95,0,248.77,0Zm0,443.99c-76.75,0-143.29-44.52-175.17-109.1,43.28,35.58,77.52,41.67,107.85,47.04,28.08,5,52.36,9.3,86.47,38.43,8,6.84,14.58,13.35,20.08,19.67-12.67,2.6-25.8,3.96-39.22,3.96ZM425.47,170.24c-45.19-38.58-80.62-44.87-111.89-50.43-28.1-4.99-52.36-9.3-86.47-38.43-9.3-7.96-16.68-15.47-22.67-22.74,14.25-3.32,29.08-5.08,44.32-5.08,80.81,0,150.3,49.34,179.93,119.48-1.06-.93-2.13-1.87-3.23-2.8Z" style="fill: #f04e61;"/>
</svg>