<svg width="11" height="12" viewBox="0 0 11 12" fill="none" xmlns="http://www.w3.org/2000/svg">
<path d="M5.55921 0.166678C6.87754 0.172523 8.13754 0.697523 9.05921 1.61919C9.98671 2.54669 10.5059 3.80086 10.5001 5.10169V5.13086C10.465 6.89836 9.47337 8.52586 8.23671 9.79752C7.53671 10.515 6.76087 11.1509 5.91504 11.6875C5.68754 11.88 5.35504 11.88 5.12754 11.6875C3.87337 10.8709 2.76504 9.84419 1.86671 8.64836C1.07921 7.61002 0.630041 6.36169 0.583374 5.06086C0.595041 2.34836 2.82337 0.160856 5.55921 0.166678ZM5.55921 3.62586C4.69004 3.62586 3.99004 4.32002 3.99004 5.18336C3.99004 6.03561 4.67837 6.72336 5.54171 6.73502H5.55921C5.97337 6.73502 6.37004 6.57752 6.66171 6.29169C6.96504 5.99419 7.13479 5.59811 7.13479 5.18336C7.13479 4.32002 6.42837 3.62586 5.55921 3.62586Z" fill="#7C7C7C"/>
</svg>
