<svg width="20" height="21" viewBox="0 0 20 21" fill="none" xmlns="http://www.w3.org/2000/svg">
<path d="M13.646 10.7155C14.6264 9.94415 15.342 8.88642 15.6933 7.68944C16.0445 6.49246 16.014 5.21576 15.6058 4.03696C15.1977 2.85817 14.4323 1.83589 13.4161 1.11235C12.3999 0.388815 11.1835 0 9.93603 0C8.68858 0 7.47215 0.388815 6.45596 1.11235C5.43978 1.83589 4.67438 2.85817 4.26624 4.03696C3.85811 5.21576 3.82754 6.49246 4.17879 7.68944C4.53004 8.88642 5.24564 9.94415 6.22603 10.7155C4.54611 11.3885 3.08032 12.5048 1.98492 13.9454C0.88953 15.386 0.205595 17.0968 0.00603184 18.8955C-0.00841357 19.0268 0.00314838 19.1597 0.0400573 19.2866C0.0769662 19.4134 0.138499 19.5317 0.221143 19.6348C0.388051 19.843 0.630815 19.9763 0.896032 20.0055C1.16125 20.0347 1.42719 19.9573 1.63536 19.7904C1.84352 19.6235 1.97686 19.3807 2.00603 19.1155C2.22562 17.1607 3.15772 15.3553 4.62425 14.0443C6.09078 12.7333 7.98893 12.0085 9.95603 12.0085C11.9231 12.0085 13.8213 12.7333 15.2878 14.0443C16.7543 15.3553 17.6864 17.1607 17.906 19.1155C17.9332 19.3612 18.0505 19.5882 18.2351 19.7525C18.4198 19.9169 18.6588 20.007 18.906 20.0055H19.016C19.2782 19.9753 19.5178 19.8428 19.6826 19.6367C19.8474 19.4307 19.9241 19.1679 19.896 18.9055C19.6955 17.1017 19.0079 15.3865 17.9069 13.9437C16.8059 12.5009 15.3329 11.385 13.646 10.7155ZM9.93603 10.0055C9.14491 10.0055 8.37155 9.7709 7.71375 9.33137C7.05595 8.89185 6.54326 8.26713 6.24051 7.53623C5.93776 6.80533 5.85855 6.00106 6.01289 5.22513C6.16723 4.44921 6.54819 3.73648 7.1076 3.17707C7.66701 2.61766 8.37975 2.2367 9.15567 2.08235C9.93159 1.92801 10.7359 2.00723 11.4668 2.30998C12.1977 2.61273 12.8224 3.12542 13.2619 3.78321C13.7014 4.44101 13.936 5.21437 13.936 6.0055C13.936 7.06636 13.5146 8.08378 12.7645 8.83392C12.0143 9.58407 10.9969 10.0055 9.93603 10.0055Z" fill="#7C7C7C"/>
</svg>
